<?xml version="1.0" encoding="UTF-8" ?>
<!DOCTYPE svg PUBLIC "-//W3C//DTD SVG 1.1//EN" "http://www.w3.org/Graphics/SVG/1.1/DTD/svg11.dtd">
<svg width="438pt" height="128.25pt" viewBox="0 0 1298 380" version="1.1" xmlns="http://www.w3.org/2000/svg">
<g id="#060809ff">
<path fill="#060809" opacity="1.00" d=" M 0.00 0.00 L 0.07 0.00 C 0.05 0.00 0.02 0.01 0.00 0.01 L 0.00 0.00 Z" />
<path fill="#060809" opacity="1.00" d=" M 773.49 4.50 C 781.61 2.02 790.56 2.38 798.47 5.47 C 803.33 7.43 807.12 11.19 810.85 14.73 C 812.79 11.78 814.04 8.49 814.95 5.09 C 815.82 4.99 817.57 4.77 818.44 4.66 C 818.62 14.60 818.44 24.54 818.56 34.48 C 817.62 34.50 815.75 34.54 814.82 34.56 C 812.51 25.47 807.85 16.48 799.73 11.32 C 793.40 7.09 785.25 6.16 777.96 8.00 C 768.63 10.38 763.65 21.99 767.36 30.63 C 768.92 34.42 771.89 37.45 775.14 39.85 C 787.88 48.63 803.21 52.58 816.04 61.17 C 831.39 72.04 832.61 97.27 818.90 109.92 C 812.94 115.66 804.71 118.50 796.57 119.01 C 783.66 120.26 770.57 114.82 762.16 104.99 C 760.46 108.58 759.19 112.33 758.24 116.18 C 756.85 116.02 755.47 115.87 754.10 115.72 C 754.19 103.73 754.22 91.73 754.10 79.74 C 755.51 79.70 756.94 79.66 758.37 79.62 C 760.60 89.66 763.95 100.11 771.60 107.39 C 779.13 114.74 790.89 116.44 800.74 113.58 C 812.28 110.43 819.65 96.40 814.69 85.27 C 811.94 78.60 805.36 74.86 799.34 71.57 C 789.97 66.93 780.11 63.30 771.09 57.98 C 757.32 50.86 750.89 32.58 757.57 18.53 C 760.71 11.97 766.69 6.97 773.49 4.50 Z" />
<path fill="#060809" opacity="1.00" d=" M 613.68 4.87 C 629.78 4.27 645.89 2.97 662.02 3.51 C 671.14 3.91 680.49 5.16 688.75 9.29 C 696.78 13.54 703.62 21.55 703.69 31.02 C 704.38 39.37 700.37 47.78 693.75 52.82 C 687.65 57.73 679.83 59.81 672.20 60.83 C 679.68 65.50 684.80 72.88 690.35 79.55 C 696.71 88.13 703.08 96.78 710.72 104.29 C 716.22 109.74 723.84 112.97 731.61 112.87 C 731.60 114.29 731.59 115.72 731.58 117.15 C 721.48 117.39 711.38 116.45 701.29 117.20 C 685.98 103.96 676.79 85.49 663.62 70.37 C 661.44 68.06 659.60 65.19 656.61 63.84 C 653.56 62.96 650.34 63.11 647.21 62.84 C 647.25 75.57 647.00 88.30 647.36 101.01 C 647.45 104.95 648.05 110.18 652.35 111.75 C 656.91 113.43 661.92 112.68 666.69 113.19 C 666.65 114.51 666.63 115.83 666.60 117.15 C 650.08 116.85 633.57 116.91 617.04 117.20 C 615.60 117.16 614.17 117.15 612.75 117.15 C 612.73 115.82 612.73 114.50 612.73 113.17 C 617.27 112.60 622.18 113.41 626.39 111.26 C 631.27 107.77 630.22 101.18 630.62 95.97 C 630.76 79.32 630.64 62.66 630.68 46.01 C 630.58 36.65 630.99 27.27 630.26 17.93 C 629.95 15.37 629.31 12.53 627.28 10.76 C 623.11 8.55 618.21 9.20 613.68 9.14 C 613.67 7.71 613.67 6.29 613.68 4.87 M 647.19 8.19 C 647.19 25.14 647.17 42.09 647.21 59.04 C 656.31 58.38 665.95 59.39 674.45 55.45 C 680.23 52.81 683.93 46.97 684.83 40.80 C 686.46 31.46 685.22 20.74 678.45 13.61 C 669.52 7.17 657.68 7.54 647.19 8.19 Z" />
<path fill="#060809" opacity="1.00" d=" M 853.18 4.79 C 870.19 5.53 887.23 4.70 904.26 4.82 C 904.23 6.27 904.22 7.72 904.21 9.17 C 900.09 9.09 895.85 8.83 891.86 9.99 C 888.50 10.92 887.52 14.86 887.27 17.90 C 886.30 29.89 886.87 41.94 886.72 53.96 C 886.92 70.63 886.21 87.34 887.30 103.99 C 887.25 107.50 889.40 111.03 892.87 112.06 C 896.56 113.03 900.43 113.04 904.23 113.15 C 904.24 114.49 904.26 115.84 904.28 117.19 C 889.20 116.50 874.12 117.31 859.03 117.16 C 856.95 117.16 854.89 117.16 852.83 117.16 C 852.80 115.84 852.79 114.53 852.78 113.21 C 857.25 112.53 862.16 113.49 866.25 111.16 C 870.61 107.87 869.94 101.84 870.28 97.01 C 870.55 74.34 870.35 51.67 870.38 28.99 C 869.98 23.52 870.85 17.63 868.43 12.52 C 864.83 7.57 857.89 9.76 852.67 8.83 C 852.81 7.48 852.98 6.13 853.18 4.79 Z" />
<path fill="#060809" opacity="1.00" d=" M 1270.62 11.55 C 1274.71 6.59 1281.52 4.01 1287.86 5.14 C 1290.83 5.57 1293.67 7.50 1294.76 10.35 C 1295.79 12.21 1293.99 14.89 1291.84 14.46 C 1288.75 13.88 1287.62 10.51 1285.51 8.59 C 1282.32 6.49 1278.44 8.75 1276.02 10.99 C 1270.76 18.23 1269.44 27.34 1266.64 35.65 C 1269.90 35.69 1273.17 35.68 1276.45 35.64 C 1276.23 36.35 1275.78 37.78 1275.56 38.49 C 1272.27 38.45 1269.00 38.49 1265.72 38.47 C 1261.97 51.20 1258.18 63.91 1254.51 76.66 C 1252.28 83.65 1249.98 90.75 1245.92 96.93 C 1242.37 102.05 1237.24 106.74 1230.88 107.69 C 1226.67 108.03 1222.04 107.95 1218.57 105.22 C 1216.27 103.85 1214.45 100.65 1216.02 98.12 C 1216.76 96.47 1218.65 96.15 1220.15 95.47 C 1221.12 96.24 1222.20 96.91 1223.08 97.82 C 1224.18 99.74 1223.19 102.03 1223.93 104.05 C 1226.88 106.16 1230.68 105.18 1233.65 103.63 C 1237.00 101.64 1239.15 98.25 1240.78 94.82 C 1245.41 84.98 1247.86 74.34 1250.96 63.98 C 1253.54 55.48 1256.05 46.96 1258.65 38.47 C 1255.08 38.46 1251.52 38.47 1247.97 38.51 C 1248.19 37.57 1248.42 36.62 1248.66 35.68 C 1252.32 35.65 1256.00 35.70 1259.69 35.63 C 1261.90 27.09 1264.73 18.33 1270.62 11.55 Z" />
<path fill="#060809" opacity="1.00" d=" M 3.30 4.79 C 20.34 5.08 37.40 4.95 54.45 4.87 C 54.47 5.85 54.50 7.83 54.52 8.82 C 49.93 9.44 44.88 8.44 40.66 10.74 C 37.37 13.45 37.68 18.24 37.35 22.09 C 37.06 40.72 37.13 59.35 37.33 77.98 C 37.53 84.17 37.68 90.49 39.51 96.46 C 42.70 104.57 50.51 110.12 58.81 112.11 C 70.48 114.55 83.30 112.89 93.32 106.17 C 99.83 101.92 104.26 94.75 105.19 87.03 C 106.35 77.72 105.55 68.32 106.06 58.97 C 106.05 46.73 106.22 34.48 105.68 22.25 C 105.42 18.47 104.32 14.18 100.85 12.10 C 97.46 9.72 93.24 9.27 89.23 9.08 C 89.19 7.66 89.17 6.24 89.21 4.82 C 101.67 4.84 114.13 5.15 126.59 4.84 C 126.64 6.16 126.69 7.48 126.73 8.79 C 122.15 9.41 117.13 10.19 113.85 13.80 C 110.33 17.15 110.52 22.36 110.32 26.83 C 110.11 43.43 110.36 60.03 110.21 76.62 C 109.66 84.25 110.19 92.42 106.14 99.26 C 101.47 108.31 92.34 114.09 82.78 116.85 C 71.17 119.95 58.76 119.91 47.16 116.79 C 37.93 114.04 28.87 108.49 24.52 99.58 C 19.90 89.70 20.79 78.55 20.74 67.96 C 20.56 51.61 21.14 35.25 20.37 18.92 C 20.35 15.35 19.14 10.89 15.26 9.81 C 11.27 8.91 7.14 9.22 3.09 8.76 C 3.14 7.77 3.25 5.78 3.30 4.79 Z" />
<path fill="#060809" opacity="1.00" d=" M 146.88 5.10 C 157.96 4.89 169.05 5.02 180.12 4.84 C 202.14 33.98 224.18 63.10 246.26 92.20 C 246.20 69.82 246.18 47.43 246.24 25.05 C 246.15 21.53 246.08 17.78 244.36 14.62 C 240.14 9.66 233.16 9.36 227.16 8.80 C 227.17 7.59 227.17 6.39 227.19 5.18 C 235.74 4.39 244.33 5.36 252.90 4.91 C 257.89 4.83 262.89 4.94 267.89 4.86 C 267.84 6.26 267.97 7.66 267.90 9.05 C 262.91 9.46 257.46 10.17 253.69 13.82 C 250.21 16.83 250.67 21.87 250.52 26.03 C 250.46 57.22 250.54 88.41 250.49 119.61 C 249.22 119.60 247.94 119.59 246.67 119.58 C 220.49 84.75 194.33 49.88 167.87 15.26 C 167.85 42.18 167.76 69.09 167.89 96.01 C 168.32 100.12 167.59 105.01 170.94 108.11 C 175.27 112.43 181.76 112.96 187.54 112.87 C 187.52 114.31 187.52 115.74 187.53 117.18 C 173.54 117.07 159.56 117.01 145.58 117.17 C 145.57 115.75 145.56 114.33 145.55 112.90 C 151.20 112.66 157.23 111.49 161.47 107.45 C 163.89 104.56 163.22 100.54 163.49 97.06 C 163.49 74.05 163.48 51.03 163.49 28.02 C 163.23 22.50 163.70 16.38 160.46 11.58 C 156.79 8.28 151.37 9.46 146.86 8.82 C 146.87 7.58 146.87 6.34 146.88 5.10 Z" />
<path fill="#060809" opacity="1.00" d=" M 286.47 5.07 C 303.58 4.69 320.70 5.07 337.81 4.87 C 337.78 6.31 337.76 7.74 337.73 9.17 C 333.29 9.20 328.60 8.60 324.40 10.35 C 320.69 12.88 320.76 17.91 320.45 21.91 C 320.24 45.26 320.43 68.62 320.36 91.97 C 320.41 96.00 320.32 100.05 320.79 104.07 C 321.24 106.73 321.92 109.87 324.52 111.27 C 328.66 113.40 333.49 112.67 337.96 113.24 C 337.87 114.49 337.75 115.75 337.62 117.00 C 330.07 117.30 322.51 117.06 314.97 117.12 C 305.45 116.56 295.93 117.31 286.41 117.13 C 286.39 115.81 286.38 114.48 286.38 113.16 C 291.77 112.42 299.26 114.11 302.27 108.26 C 304.47 102.83 303.48 96.71 303.85 90.99 C 303.77 68.15 303.99 45.31 303.72 22.48 C 303.46 18.42 303.92 13.35 300.25 10.62 C 295.95 8.60 291.00 9.35 286.39 8.86 C 286.41 7.60 286.44 6.33 286.47 5.07 Z" />
<path fill="#060809" opacity="1.00" d=" M 355.21 5.15 C 362.79 4.88 370.39 4.74 377.98 5.09 C 386.47 4.78 394.98 4.91 403.48 4.89 C 403.50 6.23 403.52 7.56 403.55 8.90 C 399.01 9.35 394.08 8.70 389.95 10.99 C 386.52 14.53 389.45 19.42 390.85 23.20 C 401.87 49.03 413.26 74.69 424.16 100.57 C 432.48 80.44 440.93 60.36 449.26 40.24 C 451.75 34.22 454.35 28.21 455.98 21.89 C 456.93 18.55 456.39 14.65 453.92 12.11 C 450.84 9.51 446.61 9.38 442.83 8.70 C 442.86 7.54 442.90 6.38 442.95 5.22 C 447.94 4.67 452.97 4.91 457.98 5.00 C 464.41 4.86 470.86 4.73 477.28 5.18 C 477.29 6.35 477.31 7.52 477.33 8.69 C 469.66 9.42 464.11 15.71 461.55 22.57 C 447.64 54.85 434.32 87.39 420.45 119.68 C 418.65 119.87 416.85 119.70 415.06 119.60 C 401.02 85.98 385.97 52.79 371.96 19.16 C 370.80 16.69 369.29 14.38 367.44 12.37 C 364.02 9.50 359.34 9.34 355.13 8.75 C 355.15 7.55 355.18 6.35 355.21 5.15 Z" />
<path fill="#060809" opacity="1.00" d=" M 497.72 5.39 C 499.43 5.03 501.17 4.96 502.92 4.88 C 528.04 4.86 553.16 4.95 578.27 4.91 C 579.07 14.36 580.09 23.78 580.78 33.23 C 579.45 33.21 578.13 33.19 576.82 33.18 C 575.10 25.91 573.10 17.89 566.96 13.02 C 562.12 9.25 555.74 9.36 549.93 9.17 C 542.89 9.16 535.86 8.89 528.84 9.12 C 528.87 24.63 528.85 40.14 528.83 55.64 C 536.85 55.26 545.26 56.77 552.96 53.94 C 558.19 50.88 557.04 43.90 557.43 38.78 C 558.43 38.79 560.43 38.82 561.42 38.83 C 561.47 51.68 561.45 64.53 561.44 77.38 C 560.05 77.40 558.66 77.42 557.28 77.45 C 557.20 71.82 557.95 64.01 551.97 61.01 C 544.45 59.04 536.53 60.08 528.84 59.81 C 529.08 74.51 528.21 89.27 529.79 103.93 C 530.16 106.71 530.78 110.13 533.73 111.32 C 538.50 113.42 543.90 112.67 548.98 113.11 C 556.45 112.80 564.58 113.31 571.12 109.04 C 579.97 102.86 584.31 92.34 586.72 82.18 C 588.08 82.08 589.46 81.98 590.84 81.88 C 590.32 93.67 589.25 105.42 588.47 117.20 C 569.96 116.67 551.45 117.09 532.94 117.12 C 520.50 116.45 508.07 117.38 495.64 117.11 C 495.61 115.79 495.58 114.47 495.57 113.15 C 498.86 112.84 502.19 112.85 505.47 112.40 C 509.68 111.58 511.99 107.03 512.14 103.05 C 512.84 90.06 512.45 77.03 512.55 64.02 C 512.46 49.66 512.77 35.29 512.29 20.93 C 511.91 17.30 512.06 12.67 508.53 10.50 C 505.36 9.05 501.78 9.13 498.37 9.03 C 498.21 8.12 497.88 6.30 497.72 5.39 Z" />
<path fill="#060809" opacity="1.00" d=" M 925.30 32.13 C 925.35 23.02 925.68 13.93 925.78 4.83 C 938.51 5.30 951.25 4.65 963.99 4.89 C 987.58 4.88 1011.18 4.90 1034.78 4.87 C 1034.84 14.01 1035.29 23.13 1035.33 32.27 C 1034.06 32.16 1032.80 32.04 1031.55 31.93 C 1030.06 24.88 1028.58 17.02 1022.82 12.09 C 1019.85 9.44 1015.67 9.41 1011.94 9.15 C 1004.11 8.92 996.28 9.38 988.47 8.81 C 988.50 38.55 988.29 68.29 988.58 98.02 C 988.88 102.92 988.60 109.74 994.10 111.90 C 998.64 113.16 1003.51 113.16 1008.19 112.84 C 1008.18 114.28 1008.19 115.73 1008.22 117.17 C 990.14 117.06 972.07 117.08 954.00 117.11 C 951.40 117.67 951.80 114.87 952.06 113.25 C 956.39 112.85 960.78 113.10 965.08 112.34 C 968.55 111.66 971.06 108.45 971.39 105.02 C 972.42 96.39 972.19 87.68 972.21 79.00 C 972.22 55.70 972.19 32.40 972.22 9.10 C 962.57 9.28 952.90 8.69 943.29 9.56 C 938.72 9.91 935.55 13.76 933.48 17.48 C 931.18 22.08 930.15 27.18 929.22 32.20 C 927.90 32.17 926.59 32.15 925.30 32.13 Z" />
<path fill="#060809" opacity="1.00" d=" M 1051.50 8.77 C 1051.55 7.44 1051.61 6.12 1051.69 4.79 C 1062.46 5.36 1073.27 4.54 1084.05 4.96 C 1088.49 5.25 1092.92 4.81 1097.36 4.86 C 1097.17 6.28 1097.00 7.70 1096.85 9.12 C 1092.23 9.06 1085.65 9.17 1084.01 14.55 C 1085.98 20.05 1089.18 24.97 1092.27 29.89 C 1099.91 42.54 1107.63 55.15 1115.18 67.85 C 1122.06 56.16 1129.04 44.53 1135.96 32.87 C 1138.63 28.14 1141.91 23.47 1142.63 17.96 C 1142.53 15.03 1140.71 12.42 1138.42 10.73 C 1135.65 9.26 1132.47 9.08 1129.42 9.04 C 1129.37 7.65 1129.35 6.26 1129.34 4.87 C 1141.61 5.54 1153.90 4.41 1166.16 5.13 C 1166.15 6.39 1166.16 7.66 1166.19 8.92 C 1158.18 9.65 1152.02 15.44 1147.94 21.96 C 1137.62 37.54 1128.61 53.94 1118.78 69.84 C 1117.89 71.43 1116.72 73.04 1116.82 74.96 C 1116.85 83.28 1116.64 91.62 1117.20 99.93 C 1117.29 103.68 1117.43 108.00 1120.42 110.73 C 1123.93 113.28 1128.53 112.57 1132.61 112.89 C 1132.61 114.30 1132.62 115.70 1132.64 117.11 C 1116.68 117.02 1100.73 117.00 1084.76 117.16 C 1084.72 115.85 1084.69 114.54 1084.68 113.24 C 1088.31 112.71 1092.14 113.09 1095.60 111.70 C 1098.61 110.50 1099.90 107.10 1100.24 104.10 C 1101.11 94.14 1100.54 84.14 1100.78 74.17 C 1093.49 62.05 1086.04 50.02 1078.76 37.90 C 1073.44 29.64 1068.81 20.92 1062.80 13.14 C 1060.27 9.47 1055.47 9.35 1051.50 8.77 Z" />
<path fill="#060809" opacity="1.00" d=" M 1211.72 34.76 C 1215.37 33.92 1219.56 34.96 1221.93 38.00 C 1226.23 42.87 1225.98 49.89 1225.32 55.95 C 1223.85 64.84 1219.73 73.81 1212.30 79.23 C 1208.29 81.91 1202.95 83.99 1198.29 81.74 C 1194.49 80.45 1192.20 76.68 1191.52 72.90 C 1190.00 63.89 1192.21 54.54 1196.76 46.70 C 1200.10 41.14 1205.29 36.33 1211.72 34.76 M 1209.43 38.55 C 1205.31 42.17 1203.07 47.32 1201.36 52.41 C 1198.93 59.57 1196.68 67.06 1197.32 74.71 C 1197.63 77.71 1200.02 79.91 1202.89 80.53 C 1205.83 79.60 1208.83 78.21 1210.50 75.46 C 1215.00 68.34 1217.11 59.99 1218.94 51.86 C 1219.52 47.44 1221.04 41.92 1217.62 38.29 C 1215.12 36.42 1211.97 37.31 1209.43 38.55 Z" />
<path fill="#060809" opacity="1.00" d=" M 17.73 164.81 C 26.75 158.66 38.59 158.28 48.85 161.08 C 55.74 162.88 61.42 167.53 66.06 172.75 C 68.36 169.39 70.16 165.69 70.79 161.64 C 72.15 161.65 73.50 161.65 74.86 161.65 C 74.75 172.97 74.98 184.28 74.72 195.59 C 73.45 194.82 71.97 194.55 70.53 194.28 C 68.11 184.36 62.83 174.61 54.07 168.95 C 47.14 164.14 38.07 163.10 29.99 165.03 C 18.94 167.74 13.23 181.77 18.39 191.70 C 22.23 199.13 30.13 202.97 37.08 206.94 C 49.02 213.03 61.96 217.28 73.00 225.02 C 85.49 234.61 88.75 252.84 83.08 267.05 C 79.18 276.90 70.29 284.39 60.10 287.08 C 50.29 289.65 39.59 289.48 30.04 285.94 C 23.09 283.23 17.02 278.60 12.10 273.03 C 10.09 276.87 8.79 281.02 7.79 285.23 C 6.23 285.21 4.68 285.21 3.13 285.23 C 3.24 271.77 2.77 258.33 3.24 244.89 C 4.74 244.88 6.24 244.86 7.74 244.84 C 10.56 257.20 14.84 270.51 25.56 278.30 C 33.17 284.12 43.29 284.78 52.44 283.45 C 61.81 281.61 69.71 274.00 71.75 264.65 C 73.75 256.47 70.36 247.39 63.68 242.33 C 53.98 234.90 42.22 231.07 31.39 225.70 C 23.83 222.10 15.87 218.15 10.91 211.13 C 5.23 203.53 2.50 193.46 4.58 184.11 C 5.97 176.17 11.07 169.20 17.73 164.81 Z" />
<path fill="#060809" opacity="1.00" d=" M 170.46 161.31 C 170.77 159.40 172.75 159.82 174.15 159.83 C 175.08 160.68 175.47 161.92 176.01 163.03 C 191.23 199.09 206.31 235.22 221.76 271.19 C 223.08 274.31 225.03 277.30 227.85 279.27 C 230.50 281.13 233.80 281.51 236.88 282.19 C 236.97 283.62 237.07 285.05 237.17 286.48 C 220.74 286.53 204.31 286.56 187.88 286.47 C 187.91 285.05 187.93 283.65 187.95 282.24 C 192.48 281.95 197.06 281.77 201.43 280.40 C 202.80 278.32 203.99 275.76 202.81 273.31 C 198.76 262.24 193.90 251.49 189.49 240.57 C 173.72 240.74 157.94 240.50 142.17 240.68 C 138.88 249.86 134.31 258.63 132.31 268.23 C 131.91 271.24 131.79 274.65 133.80 277.17 C 136.38 280.85 141.16 281.86 145.38 282.06 C 145.46 283.54 145.54 285.02 145.60 286.51 C 133.16 286.53 120.72 286.48 108.28 286.55 C 108.26 285.04 108.26 283.53 108.27 282.03 C 113.33 281.17 118.87 279.35 121.78 274.80 C 125.71 268.98 128.19 262.34 130.86 255.88 C 144.04 224.35 157.25 192.83 170.46 161.31 M 144.10 236.26 C 158.64 236.10 173.17 236.32 187.71 236.14 C 180.44 218.59 173.06 201.09 165.97 183.47 C 158.74 201.10 151.50 218.71 144.10 236.26 Z" />
<path fill="#060809" opacity="1.00" d=" M 518.09 162.09 C 532.62 157.82 548.96 158.39 562.56 165.41 C 568.76 168.51 574.63 172.52 579.05 177.92 C 581.34 172.72 583.11 167.26 583.72 161.59 C 585.07 161.62 586.43 161.65 587.80 161.68 C 588.69 177.51 588.21 193.40 589.17 209.23 C 587.71 209.22 586.25 209.23 584.80 209.23 C 582.81 197.23 579.16 184.52 570.02 175.95 C 559.30 166.02 543.56 162.31 529.41 165.49 C 519.17 168.00 510.69 175.44 505.62 184.53 C 498.26 197.71 496.79 213.21 496.85 228.04 C 497.30 242.90 500.32 258.90 510.94 270.03 C 519.27 279.68 532.48 284.74 545.13 283.10 C 554.45 281.85 563.91 278.47 570.66 271.69 C 578.82 262.93 583.33 251.17 584.86 239.41 C 586.30 239.45 587.75 239.50 589.20 239.55 C 588.66 251.70 589.47 263.87 588.99 276.02 C 588.83 278.45 588.96 280.89 589.18 283.32 C 587.74 283.31 586.32 283.32 584.90 283.32 C 583.77 278.63 581.81 274.17 579.04 270.22 C 569.60 281.30 555.51 288.22 540.93 288.65 C 524.79 289.72 507.85 285.31 495.62 274.40 C 484.63 265.04 477.90 251.24 476.27 236.98 C 473.87 218.44 477.84 198.86 488.33 183.27 C 495.28 172.90 506.12 165.44 518.09 162.09 Z" />
<path fill="#060809" opacity="1.00" d=" M 670.06 179.03 C 672.99 172.58 675.28 165.84 678.48 159.50 C 682.93 159.30 683.32 164.15 684.80 167.23 C 698.47 199.57 712.04 231.96 725.78 264.27 C 728.18 269.07 729.54 274.67 733.69 278.36 C 736.49 280.83 740.24 281.67 743.87 281.96 C 744.00 283.47 744.13 284.98 744.26 286.50 C 727.89 286.55 711.51 286.49 695.13 286.53 C 695.21 284.98 694.20 282.97 695.81 281.94 C 700.13 281.63 705.04 282.37 708.78 279.77 C 711.47 277.11 709.97 273.22 708.76 270.23 C 704.86 260.29 700.55 250.53 696.59 240.62 C 680.82 240.64 665.04 240.57 649.27 240.67 C 646.07 249.24 641.96 257.51 639.67 266.39 C 638.91 270.16 638.50 274.69 641.29 277.77 C 644.13 281.03 648.58 281.82 652.65 282.29 C 652.64 283.71 652.64 285.14 652.66 286.57 C 640.18 286.42 627.69 286.59 615.21 286.51 C 615.29 285.01 615.37 283.52 615.47 282.02 C 620.52 281.20 625.92 279.30 628.85 274.82 C 634.33 266.32 637.38 256.60 641.46 247.42 C 650.93 224.60 660.56 201.84 670.06 179.03 M 653.86 229.59 C 653.95 230.26 655.16 231.56 653.85 231.76 C 651.57 232.05 651.96 234.74 651.28 236.34 C 665.79 236.07 680.31 236.21 694.82 236.27 C 687.47 218.70 680.17 201.11 672.99 183.46 C 666.71 198.88 660.37 214.27 653.86 229.59 Z" />
<path fill="#060809" opacity="1.00" d=" M 762.41 161.64 C 783.67 161.19 805.01 158.48 826.25 160.95 C 837.74 162.33 849.84 166.32 857.18 175.80 C 862.24 181.97 863.57 190.47 862.16 198.16 C 860.83 205.23 856.39 211.42 850.69 215.68 C 843.94 220.57 835.71 223.04 827.49 223.85 C 832.31 226.79 836.12 231.05 839.92 235.17 C 848.80 245.41 856.22 256.83 865.28 266.92 C 869.83 272.03 874.87 277.05 881.37 279.56 C 885.24 281.27 889.47 281.74 893.64 282.11 C 893.66 283.59 893.70 285.07 893.74 286.56 C 882.44 286.52 871.13 286.45 859.83 286.57 C 842.44 271.41 832.03 250.25 816.78 233.19 C 815.04 231.24 813.41 229.13 811.19 227.72 C 807.60 225.96 803.46 226.57 799.61 226.45 C 799.72 240.46 799.37 254.49 799.83 268.50 C 800.12 272.75 800.36 278.08 804.65 280.36 C 809.89 282.48 815.73 282.05 821.28 282.13 C 821.30 283.60 821.33 285.07 821.35 286.55 C 801.39 286.50 781.43 286.53 761.48 286.53 C 761.50 285.09 761.52 283.67 761.55 282.24 C 766.65 281.80 772.23 282.50 776.87 279.93 C 781.30 276.82 780.89 270.80 781.20 266.01 C 781.41 239.00 781.24 212.00 781.29 185.00 C 781.05 180.41 781.40 175.59 779.80 171.22 C 776.61 164.84 768.29 166.71 762.49 166.21 C 762.45 164.68 762.43 163.16 762.41 161.64 M 799.57 165.30 C 799.63 184.22 799.62 203.13 799.58 222.05 C 810.01 221.25 821.10 222.42 830.77 217.67 C 837.55 214.48 841.02 207.07 841.94 199.97 C 843.03 191.19 842.11 181.55 836.83 174.18 C 833.29 168.98 826.92 166.87 820.99 165.92 C 813.91 164.86 806.70 164.51 799.57 165.30 Z" />
<path fill="#060809" opacity="1.00" d=" M 1099.95 159.89 C 1114.33 158.52 1129.34 160.06 1142.45 166.47 C 1156.89 173.30 1169.07 185.70 1173.97 201.09 C 1178.00 213.55 1178.37 227.08 1175.84 239.89 C 1173.44 251.61 1167.46 262.55 1158.77 270.79 C 1148.72 280.82 1134.96 286.53 1120.97 288.14 C 1105.89 289.83 1090.04 288.52 1076.28 281.68 C 1059.92 273.87 1047.41 258.44 1043.54 240.68 C 1040.08 224.74 1041.09 207.35 1048.66 192.70 C 1058.64 173.88 1078.95 161.76 1099.95 159.89 M 1096.70 165.64 C 1089.93 167.28 1083.47 170.56 1078.52 175.50 C 1071.06 182.64 1066.85 192.56 1064.93 202.57 C 1062.48 214.87 1062.63 227.55 1063.95 239.98 C 1065.77 252.47 1069.91 265.60 1079.86 274.03 C 1088.64 281.65 1100.62 284.27 1112.00 283.87 C 1122.73 283.93 1133.68 279.97 1141.11 272.07 C 1149.48 263.90 1153.32 252.29 1155.00 240.97 C 1156.94 226.48 1156.69 211.52 1152.82 197.36 C 1149.88 187.01 1143.97 177.13 1134.89 171.09 C 1123.68 163.88 1109.47 162.96 1096.70 165.64 Z" />
<path fill="#060809" opacity="1.00" d=" M 1215.04 178.02 C 1219.30 168.49 1228.60 161.38 1238.96 159.90 C 1246.26 158.88 1253.88 159.44 1260.77 162.17 C 1266.21 164.46 1270.73 168.39 1274.74 172.64 C 1276.98 169.28 1278.86 165.66 1279.47 161.62 C 1280.81 161.63 1282.19 161.65 1283.57 161.67 C 1283.50 172.66 1283.51 183.66 1283.57 194.65 C 1282.15 194.60 1280.75 194.58 1279.38 194.44 C 1276.69 184.59 1271.69 174.78 1262.92 169.04 C 1255.76 164.12 1246.39 162.94 1238.09 165.22 C 1228.13 167.99 1222.62 180.11 1226.25 189.61 C 1228.43 196.53 1234.90 200.61 1240.76 204.17 C 1251.85 210.42 1263.90 214.73 1275.04 220.87 C 1280.58 223.68 1285.57 227.73 1288.89 233.03 C 1294.43 241.50 1295.62 252.28 1293.34 262.02 C 1291.17 272.49 1283.22 281.27 1273.48 285.40 C 1265.51 288.91 1256.55 289.29 1248.01 288.34 C 1237.38 286.95 1227.78 281.05 1220.77 273.08 C 1218.82 276.95 1217.39 281.05 1216.41 285.26 C 1214.85 285.21 1213.30 285.16 1211.77 285.12 C 1211.72 271.70 1211.75 258.27 1211.77 244.85 C 1213.33 244.87 1214.92 244.88 1216.51 244.90 C 1218.65 254.74 1221.72 264.78 1228.26 272.66 C 1233.48 279.29 1241.59 283.48 1250.01 284.01 C 1259.05 284.85 1269.30 282.63 1275.08 275.07 C 1280.76 268.88 1282.35 259.52 1279.44 251.70 C 1278.13 248.85 1276.73 245.60 1273.64 244.34 C 1271.74 241.22 1268.40 239.58 1265.39 237.76 C 1255.86 232.10 1245.20 228.77 1235.50 223.45 C 1228.12 219.88 1221.07 214.81 1217.14 207.43 C 1211.99 198.64 1211.27 187.47 1215.04 178.02 Z" />
<path fill="#060809" opacity="1.00" d=" M 254.43 161.61 C 266.77 161.70 279.11 161.60 291.45 161.69 C 315.81 194.17 340.48 226.42 364.83 258.90 C 364.85 234.95 364.85 211.00 364.84 187.05 C 364.67 181.08 365.80 172.91 359.50 169.58 C 354.70 166.83 349.08 166.35 343.68 166.14 C 343.70 164.65 343.72 163.16 343.75 161.68 C 358.91 161.67 374.08 161.62 389.24 161.66 C 389.20 163.17 389.18 164.68 389.15 166.20 C 383.44 166.70 377.22 167.75 372.93 171.89 C 369.95 174.76 369.98 179.18 369.71 183.01 C 369.68 218.49 369.70 253.97 369.70 289.44 C 368.30 289.43 366.92 289.43 365.54 289.44 C 336.29 250.65 307.16 211.76 277.73 173.12 C 277.56 201.40 277.70 229.68 277.66 257.96 C 277.76 263.25 277.28 268.77 279.09 273.83 C 283.09 280.87 292.10 282.23 299.48 281.85 C 299.57 283.40 299.64 284.95 299.71 286.50 C 283.99 286.49 268.27 286.59 252.55 286.45 C 252.74 285.00 252.98 283.57 253.27 282.15 C 259.81 281.33 267.41 280.26 271.55 274.49 C 273.25 270.24 272.60 265.48 272.86 261.00 C 272.92 246.67 273.30 232.33 272.88 218.00 C 272.71 205.03 273.22 192.05 272.46 179.10 C 271.98 175.13 271.47 170.36 267.94 167.87 C 263.75 165.85 258.89 166.49 254.39 166.20 C 254.40 164.67 254.42 163.14 254.43 161.61 Z" />
<path fill="#060809" opacity="1.00" d=" M 913.39 161.62 C 933.43 161.66 953.48 161.71 973.53 161.59 C 973.51 163.14 973.51 164.70 973.51 166.25 C 968.50 166.26 963.44 165.99 958.49 166.85 C 955.89 167.30 953.45 169.02 952.65 171.61 C 950.86 177.23 951.53 183.21 951.23 189.01 C 951.20 213.69 951.21 238.38 951.22 263.06 C 951.37 267.03 951.16 271.05 951.92 274.98 C 952.64 278.75 956.34 281.04 959.95 281.44 C 970.51 282.54 981.22 282.48 991.77 281.21 C 998.65 280.29 1004.20 275.37 1007.73 269.63 C 1011.52 263.44 1013.94 256.53 1015.79 249.54 C 1017.29 249.59 1018.79 249.65 1020.31 249.71 C 1019.86 261.98 1019.62 274.26 1019.42 286.54 C 984.07 286.52 948.72 286.50 913.37 286.54 C 913.37 285.08 913.37 283.63 913.38 282.18 C 918.27 281.98 923.63 282.48 928.08 280.06 C 932.75 277.00 932.54 270.84 932.74 265.91 C 932.98 236.97 933.24 208.04 932.65 179.11 C 932.44 175.24 932.18 170.60 928.86 168.03 C 924.09 165.67 918.56 166.39 913.42 166.25 C 913.39 164.71 913.38 163.17 913.39 161.62 Z" />
</g>
<g id="#ffffffff">
</g>
<g id="#79797aff">
<path fill="#79797a" opacity="1.00" d=" M 148.16 345.22 C 151.85 341.69 157.02 340.70 161.92 340.30 C 167.76 340.75 173.35 343.22 176.96 347.95 C 176.05 348.70 175.14 349.46 174.23 350.22 C 169.42 344.92 161.36 342.39 154.70 345.64 C 146.77 348.93 143.77 359.71 148.29 366.86 C 152.08 373.42 161.05 375.59 167.83 372.74 C 170.27 371.70 172.25 369.89 174.28 368.23 C 175.16 369.01 176.03 369.81 176.90 370.61 C 172.12 376.12 164.58 378.60 157.44 377.27 C 150.04 376.31 143.72 370.12 142.54 362.78 C 141.36 356.51 143.16 349.41 148.16 345.22 Z" />
<path fill="#79797a" opacity="1.00" d=" M 1182.76 340.60 C 1190.27 339.46 1198.33 343.27 1201.94 350.02 C 1206.59 358.46 1203.64 370.29 1195.09 375.04 C 1186.36 380.38 1173.71 377.08 1169.00 367.91 C 1162.74 357.23 1170.35 341.83 1182.76 340.60 M 1184.45 344.17 C 1177.39 344.66 1171.13 350.84 1170.85 357.97 C 1170.00 365.60 1176.21 373.33 1183.94 373.82 C 1192.34 374.81 1200.64 367.54 1200.20 358.97 C 1200.48 350.64 1192.63 343.57 1184.45 344.17 Z" />
<path fill="#79797a" opacity="1.00" d=" M 96.74 345.52 C 98.18 341.53 103.08 339.86 106.98 340.67 C 110.21 341.29 112.31 344.02 114.29 346.41 C 113.22 347.16 112.16 347.92 111.10 348.68 C 110.01 347.44 108.91 346.21 107.81 344.99 C 105.20 345.36 100.89 343.88 100.25 347.53 C 99.24 351.47 103.19 354.06 105.91 356.07 C 110.10 359.12 115.47 363.08 114.66 368.95 C 114.16 375.05 107.34 378.99 101.69 377.17 C 97.90 376.33 95.82 372.79 93.62 369.94 C 94.79 369.34 95.95 368.74 97.13 368.16 C 98.88 370.86 101.22 374.22 104.90 373.88 C 108.66 373.79 112.08 369.52 110.14 365.95 C 107.43 360.74 101.43 358.63 97.88 354.16 C 95.98 351.75 95.66 348.35 96.74 345.52 Z" />
<path fill="#79797a" opacity="1.00" d=" M 204.96 340.91 C 206.22 340.93 207.48 340.96 208.75 340.99 C 208.92 352.86 208.54 364.74 209.02 376.60 C 207.66 376.72 206.31 376.86 204.96 376.99 C 204.86 364.97 204.84 352.94 204.96 340.91 Z" />
<path fill="#79797a" opacity="1.00" d=" M 238.56 341.23 C 245.38 341.32 252.20 341.27 259.02 341.23 C 259.02 342.54 259.03 343.84 259.04 345.15 C 253.51 345.08 247.98 345.13 242.45 345.12 C 242.42 348.64 242.40 352.17 242.41 355.70 C 247.93 355.71 253.47 355.78 259.00 355.66 C 259.02 356.57 259.08 358.41 259.10 359.33 C 253.55 359.44 247.99 359.52 242.43 359.41 C 242.41 363.89 242.36 368.37 242.48 372.85 C 248.03 372.90 253.58 373.19 259.13 372.86 C 259.08 374.27 259.04 375.69 259.00 377.12 C 252.19 376.96 245.37 376.97 238.56 377.09 C 238.48 365.14 238.53 353.18 238.56 341.23 Z" />
<path fill="#79797a" opacity="1.00" d=" M 310.89 340.61 C 312.10 341.21 313.70 341.30 314.67 342.32 C 314.58 353.92 314.64 365.53 314.65 377.14 C 311.40 374.77 309.00 371.51 306.36 368.53 C 301.00 362.63 296.10 356.33 290.59 350.57 C 290.61 359.24 290.51 367.90 290.64 376.56 C 289.64 376.60 287.64 376.68 286.64 376.71 C 286.77 364.72 286.48 352.73 286.79 340.74 C 295.10 349.59 302.96 358.86 310.82 368.12 C 310.66 358.95 310.60 349.77 310.89 340.61 Z" />
<path fill="#79797a" opacity="1.00" d=" M 340.94 341.27 C 347.63 341.21 354.33 341.45 361.01 340.91 C 361.02 342.31 361.03 343.71 361.05 345.12 C 358.38 345.11 355.71 345.08 353.04 345.07 C 353.07 355.71 353.00 366.36 353.06 377.00 C 351.69 377.04 350.33 377.09 348.97 377.14 C 348.93 366.49 349.11 355.84 349.07 345.19 C 346.37 345.12 343.67 345.09 340.98 345.09 C 340.96 343.81 340.95 342.54 340.94 341.27 Z" />
<path fill="#79797a" opacity="1.00" d=" M 386.96 340.95 C 388.22 340.95 389.47 340.96 390.74 340.96 C 390.86 352.98 390.50 365.01 391.04 377.02 C 389.67 377.02 388.30 377.02 386.94 377.02 C 386.90 365.00 386.84 352.98 386.96 340.95 Z" />
<path fill="#79797a" opacity="1.00" d=" M 417.30 376.87 C 422.99 364.81 428.33 352.55 434.61 340.79 C 440.58 352.74 446.12 364.92 451.62 377.10 C 450.27 377.07 448.92 377.04 447.59 377.03 C 445.76 373.14 443.89 369.28 442.05 365.41 C 437.17 365.29 432.28 364.91 427.42 365.29 C 424.59 368.51 423.91 373.06 421.43 376.53 C 420.06 376.73 418.67 376.78 417.30 376.87 M 434.45 349.55 C 432.60 353.53 430.74 357.50 428.78 361.42 C 432.59 361.42 436.41 361.33 440.23 361.49 C 438.44 357.44 436.55 353.43 434.45 349.55 Z" />
<path fill="#79797a" opacity="1.00" d=" M 527.40 340.97 C 528.33 340.94 530.19 340.87 531.12 340.84 C 535.38 349.79 539.13 358.97 542.99 368.10 C 546.89 359.25 551.00 350.47 554.54 341.46 C 555.97 341.31 557.40 341.17 558.83 341.02 C 553.85 353.20 548.61 365.30 543.07 377.24 C 537.39 365.36 532.36 353.16 527.40 340.97 Z" />
<path fill="#79797a" opacity="1.00" d=" M 585.84 340.90 C 587.23 340.92 588.63 340.94 590.04 340.96 C 590.29 352.98 589.58 365.00 589.95 377.02 C 588.57 377.02 587.20 377.03 585.84 377.04 C 585.81 364.99 585.84 352.95 585.84 340.90 Z" />
<path fill="#79797a" opacity="1.00" d=" M 619.68 341.17 C 625.10 341.47 630.68 340.74 635.97 342.20 C 642.44 344.15 643.83 353.73 638.86 357.93 C 636.31 360.00 632.93 360.23 629.81 360.53 C 634.11 366.00 638.58 371.33 642.57 377.05 C 641.03 377.05 639.49 377.06 637.96 377.07 C 633.21 371.25 629.27 364.65 623.61 359.66 C 623.47 365.45 623.49 371.26 624.09 377.02 C 622.60 377.04 621.12 377.06 619.64 377.08 C 619.60 365.11 619.43 353.13 619.68 341.17 M 623.46 345.06 C 623.33 348.94 623.31 352.81 623.45 356.69 C 627.01 356.62 630.68 357.11 634.17 356.19 C 637.73 355.12 639.28 350.12 636.63 347.39 C 633.32 343.71 627.79 345.54 623.46 345.06 Z" />
<path fill="#79797a" opacity="1.00" d=" M 667.00 341.30 C 673.68 341.20 680.36 341.19 687.04 340.91 C 687.03 342.30 687.02 343.69 687.02 345.08 C 684.40 345.07 681.79 345.10 679.18 345.15 C 679.31 355.71 679.23 366.28 679.23 376.85 C 677.88 376.83 676.54 376.82 675.21 376.81 C 675.16 366.24 675.50 355.66 675.04 345.09 C 672.34 345.07 669.65 345.07 666.96 345.08 C 666.97 343.82 666.98 342.56 667.00 341.30 Z" />
<path fill="#79797a" opacity="1.00" d=" M 713.82 340.92 C 715.21 340.93 716.61 340.95 718.02 340.97 C 718.03 349.64 717.95 358.32 718.05 367.00 C 717.56 373.12 726.08 375.82 730.39 372.47 C 732.53 371.07 733.48 368.49 733.52 366.02 C 733.80 357.67 733.37 349.31 733.66 340.95 C 734.58 340.95 736.42 340.94 737.34 340.93 C 737.37 348.61 737.42 356.29 737.35 363.97 C 737.29 368.18 736.48 373.11 732.61 375.54 C 726.37 380.05 715.69 376.99 714.29 368.99 C 713.23 359.69 714.13 350.27 713.82 340.92 Z" />
<path fill="#79797a" opacity="1.00" d=" M 766.33 348.14 C 766.41 342.89 772.18 339.42 777.02 340.68 C 780.47 341.27 782.78 344.15 784.59 346.92 C 783.51 347.42 782.47 347.95 781.35 348.29 C 779.87 347.19 778.64 345.79 777.12 344.77 C 775.29 344.05 773.35 344.91 771.54 345.20 C 770.96 346.25 770.39 347.30 769.82 348.35 C 771.19 354.10 777.24 356.13 780.96 360.04 C 783.80 362.60 785.64 366.62 784.59 370.45 C 783.08 376.08 776.29 379.07 771.00 376.90 C 767.57 375.81 765.59 372.66 763.91 369.71 C 765.01 369.19 766.13 368.67 767.25 368.15 C 768.76 370.51 770.77 372.47 772.99 374.17 C 776.01 373.76 779.69 373.06 780.59 369.61 C 781.83 365.40 777.75 362.52 774.97 360.19 C 771.12 357.14 765.66 353.84 766.33 348.14 Z" />
<path fill="#79797a" opacity="1.00" d=" M 865.62 340.81 C 872.81 341.70 880.62 340.31 887.25 343.86 C 898.42 350.29 898.23 369.45 886.44 375.13 C 879.84 377.78 872.52 376.27 865.61 377.17 C 865.47 365.05 865.49 352.93 865.62 340.81 M 869.20 345.11 C 869.18 354.39 869.23 363.66 869.14 372.93 C 874.90 372.66 881.52 374.18 886.47 370.43 C 893.14 365.67 892.77 355.08 887.75 349.26 C 882.92 344.41 875.46 345.18 869.20 345.11 Z" />
<path fill="#79797a" opacity="1.00" d=" M 923.96 340.91 C 930.70 341.02 937.44 341.01 944.18 340.93 C 944.21 342.35 944.26 343.77 944.32 345.20 C 938.74 345.13 933.17 345.08 927.61 345.14 C 927.70 348.65 927.71 352.17 927.65 355.69 C 933.16 355.77 938.68 355.70 944.21 355.69 C 944.20 357.08 944.19 358.47 944.20 359.87 C 938.69 359.30 933.15 359.44 927.63 359.36 C 927.71 363.89 927.81 368.41 928.11 372.93 C 933.47 372.92 938.83 372.89 944.19 372.83 C 944.16 374.23 944.14 375.63 944.14 377.04 C 937.36 377.02 930.58 376.98 923.81 377.08 C 923.88 365.02 923.62 352.96 923.96 340.91 Z" />
<path fill="#79797a" opacity="1.00" d=" M 969.23 341.05 C 970.64 341.19 972.05 341.35 973.48 341.50 C 977.24 350.30 980.93 359.13 984.74 367.90 C 988.94 359.82 991.97 351.10 995.98 342.88 C 996.57 340.81 999.15 341.44 1000.72 340.76 C 995.87 353.18 990.34 365.33 984.90 377.50 C 979.48 365.43 974.25 353.28 969.23 341.05 Z" />
<path fill="#79797a" opacity="1.00" d=" M 1038.45 341.68 C 1047.34 338.01 1058.76 342.44 1062.41 351.44 C 1065.30 357.93 1064.14 366.04 1059.38 371.35 C 1055.90 375.51 1050.43 377.71 1045.05 377.61 C 1035.62 377.76 1026.82 369.51 1026.67 360.03 C 1026.12 352.23 1031.11 344.41 1038.45 341.68 M 1044.27 344.17 C 1034.38 344.63 1027.70 356.16 1031.88 365.03 C 1034.91 373.69 1046.88 376.57 1053.94 371.06 C 1060.50 366.74 1061.77 356.98 1057.56 350.62 C 1054.45 346.59 1049.48 343.67 1044.27 344.17 Z" />
<path fill="#79797a" opacity="1.00" d=" M 1088.99 340.96 C 1095.50 340.95 1102.01 341.05 1108.53 340.95 C 1108.62 342.33 1108.73 343.71 1108.85 345.09 C 1106.25 345.10 1103.65 345.11 1101.07 345.13 C 1100.81 355.77 1100.56 366.42 1101.04 377.06 C 1099.66 377.05 1098.29 377.04 1096.93 377.04 C 1096.86 366.40 1096.90 355.75 1096.89 345.11 C 1094.25 345.10 1091.61 345.11 1088.99 345.12 C 1088.97 343.73 1088.97 342.34 1088.99 340.96 Z" />
<path fill="#79797a" opacity="1.00" d=" M 1134.86 340.60 C 1136.12 341.35 1138.87 340.87 1138.70 342.99 C 1139.46 354.31 1138.75 365.69 1139.09 377.04 C 1137.67 377.08 1136.26 377.12 1134.88 377.17 C 1134.83 364.98 1134.83 352.79 1134.86 340.60 Z" />
<path fill="#79797a" opacity="1.00" d=" M 482.00 360.94 C 480.30 355.82 485.39 350.18 490.66 351.40 C 495.84 351.98 498.20 358.53 495.70 362.75 C 494.44 365.26 491.38 365.73 489.06 366.77 C 486.16 365.70 482.81 364.27 482.00 360.94 Z" />
<path fill="#79797a" opacity="1.00" d=" M 822.37 351.61 C 826.29 350.38 831.18 352.84 831.93 357.03 C 833.11 360.99 830.12 365.69 826.01 366.24 C 822.40 366.80 818.18 364.56 817.45 360.80 C 816.38 357.10 818.55 352.61 822.37 351.61 Z" />
</g>
</svg>
